<svg xmlns="http://www.w3.org/2000/svg" viewBox="0 0 64 64" width="64" height="64">
  <defs>
    <linearGradient id="r" x1="0%" y1="0%" x2="100%" y2="100%">
      <stop offset="0%"   stop-color="#1e90ff"/>
      <stop offset="40%"  stop-color="#7b2fff"/>
      <stop offset="100%" stop-color="#ff2f7b"/>
    </linearGradient>
    <radialGradient id="sky" cx="50%" cy="35%" r="65%">
      <stop offset="0%"   stop-color="#0d1435"/>
      <stop offset="100%" stop-color="#060810"/>
    </radialGradient>
    <linearGradient id="pg" x1="0%" y1="0%" x2="100%" y2="0%">
      <stop offset="0%"   stop-color="#1e90ff" stop-opacity="0"/>
      <stop offset="25%"  stop-color="#1e90ff"/>
      <stop offset="55%"  stop-color="#ff2f7b"/>
      <stop offset="80%"  stop-color="#7b2fff"/>
      <stop offset="100%" stop-color="#7b2fff" stop-opacity="0"/>
    </linearGradient>
    <linearGradient id="tg" x1="0%" y1="0%" x2="0%" y2="100%">
      <stop offset="0%"   stop-color="#1fa84e"/>
      <stop offset="100%" stop-color="#0b5c28"/>
    </linearGradient>
    <linearGradient id="bg" x1="0%" y1="0%" x2="0%" y2="100%">
      <stop offset="0%"   stop-color="#2a2060"/>
      <stop offset="100%" stop-color="#110d30"/>
    </linearGradient>
    <filter id="glow" x="-30%" y="-200%" width="160%" height="500%">
      <feGaussianBlur stdDeviation="1" result="b"/>
      <feMerge><feMergeNode in="b"/><feMergeNode in="SourceGraphic"/></feMerge>
    </filter>
    <clipPath id="c"><circle cx="32" cy="32" r="27"/></clipPath>
  </defs>
  <circle cx="32" cy="32" r="32" fill="url(#r)"/>
  <circle cx="32" cy="32" r="32" fill="none" stroke="rgba(255,255,255,0.12)" stroke-width="0.8"/>
  <circle cx="32" cy="32" r="27" fill="url(#sky)"/>
  <g clip-path="url(#c)">
    <rect x="6"  y="26" width="4" height="13" rx="0.5" fill="url(#bg)"/>
    <rect x="7"  y="23" width="1.5" height="4" rx="0.3" fill="url(#bg)"/>
    <rect x="11" y="29" width="3" height="10" rx="0.5" fill="url(#bg)"/>
    <rect x="15" y="31" width="5" height="8"  rx="0.5" fill="url(#bg)"/>
    <rect x="7"  y="28" width="1" height="1" fill="rgba(255,220,80,0.6)"/>
    <rect x="9"  y="28" width="1" height="1" fill="rgba(255,220,80,0.6)"/>
    <rect x="7"  y="31" width="1" height="1" fill="rgba(100,180,255,0.5)"/>
    <rect x="12" y="32" width="1" height="1" fill="rgba(255,220,80,0.6)"/>
    <rect x="16" y="33" width="1" height="1" fill="rgba(255,220,80,0.6)"/>
    <rect x="46" y="27" width="5" height="12" rx="0.5" fill="url(#bg)"/>
    <rect x="47" y="23" width="1.5" height="5" rx="0.3" fill="url(#bg)"/>
    <rect x="52" y="29" width="4" height="10" rx="0.5" fill="url(#bg)"/>
    <rect x="53" y="26" width="2" height="4"  rx="0.3" fill="url(#bg)"/>
    <rect x="47" y="29" width="1" height="1" fill="rgba(255,220,80,0.6)"/>
    <rect x="49" y="29" width="1" height="1" fill="rgba(100,180,255,0.5)"/>
    <rect x="47" y="32" width="1" height="1" fill="rgba(255,220,80,0.6)"/>
    <rect x="53" y="31" width="1" height="1" fill="rgba(255,220,80,0.6)"/>
    <rect x="55" y="31" width="1" height="1" fill="rgba(100,180,255,0.5)"/>
    <ellipse cx="32" cy="46" rx="21" ry="4" fill="#0a4020" opacity="0.9"/>
    <ellipse cx="20" cy="38" rx="6"  ry="7"  fill="#0b5026"/>
    <ellipse cx="32" cy="35" rx="8"  ry="9"  fill="#0b5026"/>
    <ellipse cx="44" cy="38" rx="6"  ry="7"  fill="#0b5026"/>
    <ellipse cx="17" cy="41" rx="7"  ry="8"  fill="url(#tg)"/>
    <ellipse cx="27" cy="39" rx="8"  ry="9"  fill="url(#tg)"/>
    <ellipse cx="32" cy="37" rx="9"  ry="10" fill="url(#tg)"/>
    <ellipse cx="37" cy="39" rx="8"  ry="9"  fill="url(#tg)"/>
    <ellipse cx="47" cy="41" rx="7"  ry="8"  fill="url(#tg)"/>
    <ellipse cx="15" cy="38" rx="4" ry="5" fill="#28c45e" opacity="0.6"/>
    <ellipse cx="30" cy="34" rx="5" ry="6" fill="#28c45e" opacity="0.65"/>
    <ellipse cx="45" cy="38" rx="4" ry="5" fill="#28c45e" opacity="0.6"/>
  </g>
  <g clip-path="url(#c)" filter="url(#glow)">
    <polyline points="6,38 13,38 15,38 17,33 19,43 22,35 24,38 28,38 30,30 32,46 34,38 38,38 40,33 42,43 45,35 47,38 51,38 58,38" stroke="url(#pg)" stroke-width="1.8" fill="none" stroke-linecap="round" stroke-linejoin="round"/>
    <polyline points="6,38 13,38 15,38 17,33 19,43 22,35 24,38 28,38 30,30 32,46 34,38 38,38 40,33 42,43 45,35 47,38 51,38 58,38" stroke="white" stroke-width="0.7" fill="none" stroke-linecap="round" stroke-linejoin="round" opacity="0.5"/>
  </g>
  <circle cx="32" cy="32" r="27" fill="none" stroke="url(#r)" stroke-width="0.8" opacity="0.35"/>
</svg>
